<?xml version="1.0" encoding="UTF-8" standalone="no"?>
<svg
   xmlns:dc="http://purl.org/dc/elements/1.1/"
   xmlns:cc="http://creativecommons.org/ns#"
   xmlns:rdf="http://www.w3.org/1999/02/22-rdf-syntax-ns#"
   xmlns:svg="http://www.w3.org/2000/svg"
   xmlns="http://www.w3.org/2000/svg"
   xmlns:sodipodi="http://sodipodi.sourceforge.net/DTD/sodipodi-0.dtd"
   xmlns:inkscape="http://www.inkscape.org/namespaces/inkscape"
   version="1.1"
   width="48"
   height="48"
   id="svg50"
   sodipodi:docname="icon-full-size.svg"
   inkscape:version="0.92.2 5c3e80d, 2017-08-06">
  <metadata
     id="metadata54">
    <rdf:RDF>
      <cc:Work
         rdf:about="">
        <dc:format>image/svg+xml</dc:format>
        <dc:type
           rdf:resource="http://purl.org/dc/dcmitype/StillImage" />
        <dc:title></dc:title>
      </cc:Work>
    </rdf:RDF>
  </metadata>
  <sodipodi:namedview
     pagecolor="#ffffff"
     bordercolor="#666666"
     borderopacity="1"
     objecttolerance="10"
     gridtolerance="10"
     guidetolerance="10"
     inkscape:pageopacity="0"
     inkscape:pageshadow="2"
     inkscape:window-width="1364"
     inkscape:window-height="845"
     id="namedview52"
     showgrid="false"
     inkscape:zoom="6.9532167"
     inkscape:cx="36.986587"
     inkscape:cy="27.038147"
     inkscape:window-x="82"
     inkscape:window-y="0"
     inkscape:window-maximized="0"
     inkscape:current-layer="svg50" />
  <defs
     id="defs25">
    <linearGradient
       x1="13.27732"
       y1="14.2521"
       x2="81.28563"
       y2="80.31082"
       gradientUnits="userSpaceOnUse"
       id="color-1">
      <stop
         offset="0"
         stop-color="#000000"
         stop-opacity="0.13"
         id="stop2" />
      <stop
         offset="1"
         stop-color="#000000"
         stop-opacity="0"
         id="stop4" />
    </linearGradient>
    <filter
       id="dropshadow-base">
      <feColorMatrix
         type="matrix"
         values="0 0 0 0 0  0 0 0 0 0  0 0 0 0 0  0 0 0 .8 0"
         id="feColorMatrix7" />
      <feOffset
         dx="0"
         dy="1"
         id="feOffset9" />
      <feGaussianBlur
         stdDeviation="1"
         id="feGaussianBlur11"
         result="result1" />
      <feComposite
         in="SourceGraphic"
         in2="result1"
         id="feComposite13" />
    </filter>
    <filter
       id="dropshadow-banner"
       x="-10%"
       y="-10%"
       width="120%"
       height="130%">
      <feColorMatrix
         type="matrix"
         values="0 0 0 0 0  0 0 0 0 0  0 0 0 0 0  0 0 0 .4 0"
         id="feColorMatrix16" />
      <feOffset
         dx="0"
         dy="1"
         id="feOffset18" />
      <feGaussianBlur
         stdDeviation="0.5"
         id="feGaussianBlur20"
         result="result1" />
      <feComposite
         in="SourceGraphic"
         in2="result1"
         id="feComposite22" />
    </filter>
  </defs>
  <g
     stroke-width="none"
     stroke-miterlimit="10"
     font-weight="none"
     font-size="none"
     text-anchor="none"
     style="font-family:none;mix-blend-mode:normal;fill:none;fill-rule:nonzero;stroke:none;stroke-linecap:butt;stroke-linejoin:miter;stroke-miterlimit:10;stroke-dasharray:none;stroke-dashoffset:0"
     id="g48"
     transform="matrix(1.3922318,0,0,1.2876367,-9.4135632,-6.9032808)">
    <path
       d="M 7,43 C 5.89543,43 5,42.10457 5,41 V 7 C 5,5.89543 5.89543,5 7,5 h 34 c 1.10457,0 2,0.89543 2,2 v 34 c 0,1.10457 -0.89543,2 -2,2 z"
       id="base 1 5"
       inkscape:connector-curvature="0"
       style="fill:#8bc34a;stroke-width:1" />
    <path
       d="M 13.84818,29.27787 C 13.49543,28.92512 13.27732,28.43773 13.27732,27.89915 V 16.20168 c 0,-1.07714 0.87243,-1.94958 1.94958,-1.94958 h 17.54622 c 0.53857,0 1.02596,0.21811 1.37872,0.57086 l 8.84817,8.84817 V 41 c 0,1.10457 -0.89543,2 -2,2 H 27.57032 Z"
       id="path28"
       style="fill:url(#color-1);stroke-width:1"
       inkscape:connector-curvature="0" />
    <path
       d="M 32.7731,14.25211 H 15.22689 c -1.07714,0 -1.94958,0.87244 -1.94958,1.94958 v 11.69747 c 0,1.07714 0.87244,1.94958 1.94958,1.94958 h 6.82353 l -1.94958,2.92437 v 0.97479 h 7.79832 v -0.97479 l -1.94958,-2.92437 h 6.82353 c 1.07714,0 1.94958,-0.87244 1.94958,-1.94958 V 16.20169 c 0,-1.07714 -0.87244,-1.94958 -1.94958,-1.94958 z m 0,11.69747 H 15.22689 V 16.20169 H 32.7731 Z"
       id="path30"
       inkscape:connector-curvature="0"
       style="fill:none;stroke-width:0" />
    <path
       d="m 34.72268,16.20168 v 11.69747 c 0,1.07714 -0.87244,1.94958 -1.94958,1.94958 h -6.82353 l 1.94958,2.92437 v 0.97479 H 20.10083 V 32.7731 l 1.94958,-2.92437 h -6.82353 c -1.07714,0 -1.94958,-0.87244 -1.94958,-1.94958 V 16.20168 c 0,-1.07714 0.87244,-1.94958 1.94958,-1.94958 h 17.54621 c 1.07714,0 1.94958,0.87244 1.94958,1.94958 z m -1.94958,0 H 15.22689 v 9.74789 H 32.7731 Z"
       id="path32"
       inkscape:connector-curvature="0"
       style="fill:#707070;stroke-width:0" />
    <path
       d="M 2,24 C 2,11.84974 11.84974,2 24,2 36.15026,2 46,11.84974 46,24 46,36.15026 36.15026,46 24,46 11.84974,46 2,36.15026 2,24 Z"
       id="base 1 1 1"
       inkscape:connector-curvature="0"
       style="fill:none;stroke-width:1" />
    <g
       font-weight="400"
       font-size="14"
       id="g35"
       style="font-weight:400;font-size:14px;font-family:Roboto, sans-serif;text-anchor:start;fill:#000000;stroke-width:1" />
    <rect
       x="2"
       y="2"
       width="44"
       height="22"
       id="rect37"
       style="fill:none;stroke-width:1" />
    <path
       d="M 2,24 V 2 h 44 v 22 z"
       id="path39"
       inkscape:connector-curvature="0"
       style="fill:none;stroke-width:1" />
    <path
       d="M 2,24 V 2 h 44 v 22 z"
       id="path41"
       inkscape:connector-curvature="0"
       style="fill:none;stroke-width:1" />
    <path
       d="M 2,24 V 2 h 44 v 22 z"
       id="path43"
       inkscape:connector-curvature="0"
       style="fill:none;stroke-width:1" />
    <path
       d="M 5,7 C 5,5.89543 5.89543,5 7,5 h 34 c 1.10457,0 2,0.89543 2,2 V 24 H 5 Z"
       id="base 1 2 1"
       inkscape:connector-curvature="0"
       style="fill:#000000;fill-opacity:0.1;stroke-width:1" />
    <path
       d="M 2,24 V 2 h 44 v 22 z"
       id="path46"
       inkscape:connector-curvature="0"
       style="fill:none;stroke-width:1" />
  </g>
</svg>
