<svg version="1.1" xmlns="http://www.w3.org/2000/svg" xmlns:xlink="http://www.w3.org/1999/xlink" width="48" height="48"><defs><linearGradient x1="13.27732" y1="14.2521" x2="81.28563" y2="80.31082" gradientUnits="userSpaceOnUse" id="color-1"><stop offset="0" stop-color="#000000" stop-opacity="0.13"></stop><stop offset="1" stop-color="#000000" stop-opacity="0"></stop></linearGradient><filter id="dropshadow-base"><feColorMatrix type="matrix" values="0 0 0 0 0  0 0 0 0 0  0 0 0 0 0  0 0 0 .8 0"></feColorMatrix> <feOffset dx="0" dy="1"></feOffset> <feGaussianBlur stdDeviation="1"></feGaussianBlur> <feComposite in="SourceGraphic"></feComposite></filter><filter id="dropshadow-banner" x="-10%" y="-10%" width="120%" height="130%"><feColorMatrix type="matrix" values="0 0 0 0 0  0 0 0 0 0  0 0 0 0 0  0 0 0 .4 0"></feColorMatrix> <feOffset dx="0" dy="1"></feOffset> <feGaussianBlur stdDeviation="0.5"></feGaussianBlur> <feComposite in="SourceGraphic"></feComposite></filter></defs><g fill="none" fill-rule="nonzero" stroke="none" stroke-width="none" stroke-linecap="butt" stroke-linejoin="miter" stroke-miterlimit="10" stroke-dasharray="" stroke-dashoffset="0" font-family="none" font-weight="none" font-size="none" text-anchor="none" style="mix-blend-mode: normal"><path d="M7,43c-1.10457,0 -2,-0.89543 -2,-2v-34c0,-1.10457 0.89543,-2 2,-2h34c1.10457,0 2,0.89543 2,2v34c0,1.10457 -0.89543,2 -2,2z" id="base 1 5" fill="#8bc34a" stroke-width="1"></path><path d="M13.84818,29.27787c-0.35275,-0.35275 -0.57086,-0.84014 -0.57086,-1.37872v-11.69747c0,-1.07714 0.87243,-1.94958 1.94958,-1.94958l17.54622,0c0.53857,0 1.02596,0.21811 1.37872,0.57086l8.84817,8.84817v17.32887c0,1.10457 -0.89543,2 -2,2l-13.42969,0z" fill="url(#color-1)" stroke-width="1"></path><path d="M32.7731,14.25211h-17.54621c-1.07714,0 -1.94958,0.87244 -1.94958,1.94958v11.69747c0,1.07714 0.87244,1.94958 1.94958,1.94958h6.82353l-1.94958,2.92437v0.97479h7.79832v-0.97479l-1.94958,-2.92437h6.82353c1.07714,0 1.94958,-0.87244 1.94958,-1.94958v-11.69747c0,-1.07714 -0.87244,-1.94958 -1.94958,-1.94958zM32.7731,25.94958h-17.54621v-9.74789h17.54621z" fill="none" stroke-width="0"></path><path d="M34.72268,16.20168v11.69747c0,1.07714 -0.87244,1.94958 -1.94958,1.94958h-6.82353l1.94958,2.92437v0.97479h-7.79832v-0.97479l1.94958,-2.92437h-6.82353c-1.07714,0 -1.94958,-0.87244 -1.94958,-1.94958v-11.69747c0,-1.07714 0.87244,-1.94958 1.94958,-1.94958h17.54621c1.07714,0 1.94958,0.87244 1.94958,1.94958zM32.7731,16.20168h-17.54621v9.74789h17.54621z" fill="#707070" stroke-width="0"></path><path d="M2,24c0,-12.15026 9.84974,-22 22,-22c12.15026,0 22,9.84974 22,22c0,12.15026 -9.84974,22 -22,22c-12.15026,0 -22,-9.84974 -22,-22z" id="base 1 1 1" fill="none" stroke-width="1"></path><g fill="#000000" stroke-width="1" font-family="Roboto, sans-serif" font-weight="400" font-size="14" text-anchor="start"></g><rect x="2" y="2" width="44" height="22" fill="none" stroke-width="1"></rect><path d="M2,24v-22h44v22z" fill="none" stroke-width="1"></path><path d="M2,24v-22h44v22z" fill="none" stroke-width="1"></path><path d="M2,24v-22h44v22z" fill="none" stroke-width="1"></path><path d="M5,7c0,-1.10457 0.89543,-2 2,-2h34c1.10457,0 2,0.89543 2,2v17h-38z" id="base 1 2 1" fill-opacity="0.1" fill="#000000" stroke-width="1"></path><path d="M2,24v-22h44v22z" fill="none" stroke-width="1"></path></g></svg>